<svg id="Layer_1" data-name="Layer 1" xmlns="http://www.w3.org/2000/svg" viewBox="0 0 1891.42 669"><defs><style>.cls-1{fill:#fff;}</style></defs><title>logo parques de Mexico</title><path class="cls-1" d="M200.41,199.86a6,6,0,0,0,0,.92,0.32,0.32,0,0,1,.25-0.21A6.18,6.18,0,0,1,200.41,199.86Z" transform="translate(-54.37 -93.48)"/><path class="cls-1" d="M1445.54,487.88l-0.3.17h0.3v-0.17Z" transform="translate(-54.37 -93.48)"/><path class="cls-1" d="M1447.75,485.87V488h2.37C1449.11,487.08,1448,486,1447.75,485.87Z" transform="translate(-54.37 -93.48)"/><path class="cls-1" d="M1441.74,487.21l-3,.83h1.69c2.07-1.27,4.33-2.66,4.51-2.84C1445.33,484.87,1441.74,487.21,1441.74,487.21Z" transform="translate(-54.37 -93.48)"/><path class="cls-1" d="M1441.49,488H1443c0.93-.9,2-1.88,2-1.88Z" transform="translate(-54.37 -93.48)"/><path class="cls-1" d="M589,203.83c-69.9,9.63-120.53,18.14-120.53,93.84,0,42.66,27.73,72,87.45,72,35.2,0,62.89-12.22,79.45-30.4,0.54,8,2.08,17.06,4.3,23.48h64.48V196.9c0-66.1-28.82-103.43-112-103.43-84.2,0-114.06,37.87-115.1,92.29h64.47c3.21-23.52,16-39,47.46-39,27.19,0,44.21,10.13,44.21,27.23C633.18,192.11,623.62,199,589,203.83Zm45.87,30.4L634.26,263c-0.5,30.94-27.19,57.05-62.89,57.05-21.85,0-33.62-9.59-33.62-29.32,0-22.4,12.84-33.57,52.26-41C615.62,244.9,627.88,241.15,634.84,234.23Z" transform="translate(-54.37 -93.48)"/><path class="cls-1" d="M801.16,226.22c0-42.12,20.77-63.43,63.39-63.43a115,115,0,0,1,19.23,1.63V93.48h-9.05c-28.28,0-54.93,3.21-77.86,38.41V100.44h-65V362.72h69.31V226.22Z" transform="translate(-54.37 -93.48)"/><path class="cls-1" d="M1255.82,369.64c36.24,0,63.43-13.89,81.57-43.75v36.83H1403V100.44h-68.77V251.83c0,34.61-18.68,59.72-53.84,59.72-29.32,0-44.25-16-44.25-49V100.44h-69.31V273.18C1166.78,330.73,1203.57,369.64,1255.82,369.64Z" transform="translate(-54.37 -93.48)"/><path class="cls-1" d="M276.64,486.92V328.61c19.72,27.69,45.33,41,77.86,41,67.65,0,107.64-56,107.64-135.41,0-88.5-47.46-140.75-113.52-140.75-32,0-56.51,12.3-73.07,39l-0.5-32H208.37v61.89a5.63,5.63,0,0,0-3.5-1.46s2.76,0.53,3.5,2.67v2.34c0,0.15-.07.29-0.12,0.45-1,3-5.67,15.68-7.76,26.36-0.37-7.92-.25-19.35,3-28.73,0.62-4.84.62-8.72-5.17-8.43,0,0,5.3.08,4.46,5-0.67,4.13-4.38,24.52-3,36.12-0.17,1.75-.33,3.42-0.33,4.88a2.41,2.41,0,0,0-.71,2.17c-0.75,1.38-6-2.12-6.59,2.63,0,0-48-70.73-137.29-49.13-1.71.42,0.92,7,4.5,9.05s5.67,7.71,9.76,10.05a26,26,0,0,1,7.63,7c1.42,1.83-1,3.17,3.42,5.67s6.09,1.21,6.46,2.67a26.3,26.3,0,0,0,8.26,14.6c7.17,6.67,14.59,17,17,18.43s5.67,0.08,5.67.08l-1,1.8s8.92,7.42,14.59,3.71c-1.83,3.25-.79,4.59-0.79,4.59s-9.26,9.09-7.22,16.64c2.21,1.25,6.3-3.25,6.3-3.25s-8.26,13-8.13,18.1c1.63-.42,3,1.25,3,1.25l2,1.63,0.83-.21s-7.43,8.38-5,17.31l2.12-.58,0.75,2.25,0.62-.17s-1.71,8.93-1.25,10.51a1.3,1.3,0,0,0,1.75-.46l2.54-.29L131,298l-0.83,7.88,1.29-.33,0.58-.13,3-2.84,0.71,0.42,1.08-.17,0.75,1,1.67,1,1.21,0.5L140,307.59l3-4,1.59-.71,1.92-1.13,1.5-.92,1.09-.5,1.5-3.75,1.17-2.67,1.17-.79,1,0.58,1.29-.79s8-26.61,10.22-33.11S173,243,179.85,233.56c-8.05,11.93-8.76,29.9-3.92,40.62,2.17,1.25,5.71-4,7.26-6.63s2.42-12.51,4.25-20.35,4-12.22,2.33-13.14,1.25-1.13,1.25-1.13l2.12,1.21,3.3,2.63L207.21,239l1.17,0.73v247.2h68.27Zm56-336.93c34.7,0,59.18,32.53,59.18,79.41,0,53.88-19.18,81.07-59.72,81.07-38.37,0-58.09-28.28-58.09-85.33C274,180.93,299.58,150,332.61,150ZM208.37,169.67v53.79l-4,.42,0-1v-1.5l0.17-1.46V218l-1.75-8.26,1.29-1.17,1.67-.79,0.79-4.13s-1.34-2.88-2.75-3.71a3.22,3.22,0,0,0-2.63.29c-0.12-.92-0.21-2.17-0.29-3.63C201.62,189.1,203.66,178.14,208.37,169.67Zm-8,30.2a6.18,6.18,0,0,0,.21.71,0.32,0.32,0,0,0-.25.21A6,6,0,0,1,200.41,199.86ZM200,219.63l-0.38-2-0.21-1.92,2.29,4.88,0,3,2.17,1.33,4.42-.82v1.66l-1.71.7-7.38,2.75,0.25-5.09,0.71-2.46Zm7.42,7.59,0.92-.52V234l-9.17-4.08ZM208,238.56l-11.18-2.83-0.13-1.38,1.54-.79,1.5-2.29,8.59,3.84v3.7Z" transform="translate(-54.37 -93.48)"/><path class="cls-1" d="M466.31,686.55c0-19.35-7.46-34.24-23.65-44.25L462.1,642V601.56H244.82v41.37h78.86c-16.76,12-24.9,27.48-24.9,47.21,0,41,34,65.31,82.16,65.31C434.62,755.45,466.31,726.68,466.31,686.55Zm-131.66-10c0-23.27,17.18-35.2,51.8-35.2,26.86,0,45.54,15.52,45.54,35.53,0,21-19.69,35.87-48.13,35.87C351.17,712.75,334.65,701.15,334.65,676.55Z" transform="translate(-54.37 -93.48)"/><path class="cls-1" d="M298.79,511.31c0,48.84,31.7,77,80.86,77,57.55,0,86.66-26.53,86.66-79.57,0-33.95-18.47-60.14-51.13-69.82v43.33c11.05,2.88,17.81,14.89,17.81,28.48,0,20.69-15.56,34.24-39.45,35.53V436.66C330.49,436.66,298.79,462.52,298.79,511.31ZM367,545c-22-1.63-34.91-15.52-34.91-32.36,0-16.47,11.3-32,34.91-32.61v65Z" transform="translate(-54.37 -93.48)"/><path class="cls-1" d="M876.23,761.75h85.66v-14c-29.5-19-44.37-53.95-44.37-104.68,0-43.64,16.1-77,44.37-95.88V531.66c0-62.06-46.54-110.64-113.35-110.64-41.83,0-71.48,16.22-89.75,52.59C733.18,435.2,711.54,421,666.37,421c-43.87,0-74.94,13.47-97.13,57.34V429.78H486.92v332h87.66V560c0-43.21,18.27-64.81,53.3-64.81,38.49,0,52.63,13.51,52.63,66.81V761.75h87.71V563.36c0-40.45,23.65-70.82,56-70.82,31,0,52,28.32,52,68.15V761.75Z" transform="translate(-54.37 -93.48)"/><path class="cls-1" d="M1657.65,501c-0.1.22-.23,0.42-0.35,0.64l9.86,21.42a20.35,20.35,0,0,1,3.19-.3c5,0,8.59,2.21,10.67,6.46l1.09,2.34h0l0.05,0.11a62.3,62.3,0,0,0,7.5,12.44c0.2-.38.38-0.78,0.58-1.16A98.78,98.78,0,0,0,1657.65,501Z" transform="translate(-54.37 -93.48)"/><path class="cls-1" d="M1650.91,528c0.5-.25,1-0.49,1.53-0.73l0.16-.07a48.37,48.37,0,0,1,6-2.22h0l-7.42-16.16Zm0.53-.51a48.41,48.41,0,0,1,6-2.22,48.41,48.41,0,0,0-6,2.22l-0.16.07Z" transform="translate(-54.37 -93.48)"/><path class="cls-1" d="M1686.74,693.89A145.71,145.71,0,0,1,1675,660.32h-46.6c-3.63,27.9-25.27,45.79-55.8,45.79-25.86,0-56-23.9-56-91.25,0-67.6,31.69-81.78,58.3-81.78,28.82,0,49.34,17.27,54,45.29h8.38a45.68,45.68,0,0,1-1.5-5c-2-8.13-1.71-17.27-.42-25.56a30.36,30.36,0,0,1,.69-3.21c0.06-.22.12-0.44,0.18-0.66a26,26,0,0,1,1-2.93l0-.06a24.57,24.57,0,0,1,1.37-2.7l0.17-.29a23.13,23.13,0,0,1,1.73-2.5h0l0.49-31.11c-0.16-.1-0.3-0.21-0.44-0.32s-0.3-.24-0.44-0.36a7.92,7.92,0,0,1-.65-0.61c-0.15-.16-0.28-0.33-0.42-0.5s-0.32-.39-0.46-0.6a8.39,8.39,0,0,1-.74-1.35l0,0a7.88,7.88,0,0,1-.46-1.54,8.14,8.14,0,0,1,2.58-7.65l0-.14c-18.1-9-39.9-13.82-64.65-13.82-46.53,0-80.69,15.31-101.63,45-16.19,22.92-24.48,54.41-24.48,94,0,39.21,8.57,71.6,24.48,95.82,21.11,32.13,55.16,49.86,99.42,49.86C1624.75,762.21,1667.33,735.43,1686.74,693.89Z" transform="translate(-54.37 -93.48)"/><path class="cls-1" d="M1776,528.83c0.51-.13,1-0.26,1.54-0.35l-12-26.18,0.21,30A21.75,21.75,0,0,1,1776,528.83Z" transform="translate(-54.37 -93.48)"/><path class="cls-1" d="M1811.54,481.7a158.51,158.51,0,0,0-41.24,5.15,6.29,6.29,0,0,1,.72,2.27,11.83,11.83,0,0,1-.14,3.61L1788.2,530a14.9,14.9,0,0,1,5.05,3.79,17.85,17.85,0,0,1,2.93,4.52,89.5,89.5,0,0,1,15.36-1.26c44.75,0,67.44,28.23,67.44,83.87,0,56-22.69,84.37-67.44,84.37s-67.44-28.36-67.44-84.37q0-7.89.61-15a47.11,47.11,0,0,1-19.5,1.57c-15.26-1.67-30.65-2.29-45.88-4.67-0.9-.14-1.8-0.33-2.7-0.49-0.6,6-.93,12.24-0.93,18.64a175.64,175.64,0,0,0,4.32,39.45,142.13,142.13,0,0,0,9.32,27.57c20.82,45.23,64.29,72.14,122.19,72.14,81.57,0,134.25-54.63,134.25-139.17S1893.11,481.7,1811.54,481.7Z" transform="translate(-54.37 -93.48)"/><path class="cls-1" d="M1692.13,548.18a25.17,25.17,0,0,0,8.31,4.87,108.46,108.46,0,0,0,34.33,5.79,81.86,81.86,0,0,0,10.36-.66c1.85-.33,3.66-0.72,5.41-1.21,1-6.25,2.25-12,3.66-14.71l0.68-45.12-0.09-.06-0.36-.24a8.2,8.2,0,0,1-.79-0.64c-0.13-.12-0.26-0.24-0.39-0.37a8.45,8.45,0,0,1-.54-0.65c-0.14-.18-0.29-0.36-0.42-0.56s-0.16-.31-0.25-0.46a9.81,9.81,0,0,1-.46-1A118.24,118.24,0,0,0,1692.13,548.18Z" transform="translate(-54.37 -93.48)"/><path class="cls-1" d="M1650.06,509.07l0-2.88a8.13,8.13,0,0,1-1,.08h-0.38c-0.19,0-.37,0-0.56-0.06s-0.34,0-.51-0.06a7.76,7.76,0,0,1-1-.25l-0.24-.06-0.15-.06a8.33,8.33,0,0,1-1-.43l-0.31-.17c-0.12-.07-0.24-0.12-0.35-0.19l-0.42,26.8c0.58-.47,1.18-0.92,1.81-1.36a32.52,32.52,0,0,1,3.67-2.17Z" transform="translate(-54.37 -93.48)"/><path class="cls-1" d="M1663.35,524l0.21,0c0.85-.21,1.65-0.35,2.45-0.48L1656.15,502a8.29,8.29,0,0,1-2.19,2.55,8.19,8.19,0,0,1-2.1,1.17l8.6,18.7A28.21,28.21,0,0,1,1663.35,524Z" transform="translate(-54.37 -93.48)"/><path class="cls-1" d="M1768.09,496.92a7.82,7.82,0,0,1-2.06,1.34l13.73,29.83a18.3,18.3,0,0,1,2.78.25,17.83,17.83,0,0,1,3.75,1l-16.17-35.21A8.12,8.12,0,0,1,1768.09,496.92Z" transform="translate(-54.37 -93.48)"/><path class="cls-1" d="M1687.39,546.72a58.57,58.57,0,0,1-8-12.61,8.74,8.74,0,0,1-1.81.41,29.73,29.73,0,0,1-6.27-.08l-0.3,0c-1.2-.11-2.52-0.22-3.69-0.22a11.71,11.71,0,0,0-2.33.2,4.47,4.47,0,0,0-1.18.38c-4.62,2.17-10.95,7.85-13.08,11.71a23.62,23.62,0,0,0-1.35,3.55c-1.87,6.13-1.9,13.94-.33,21.38a50.51,50.51,0,0,0,2,7,40.88,40.88,0,0,0,3.27,7,84.78,84.78,0,0,0,20.23,5.33c1.2,0.18,2.37.34,3.55,0.49a301.5,301.5,0,0,0,30.29,2l6.55,0.21c1.25,0.06,2.56.15,3.92,0.24a67.69,67.69,0,0,0,11,.15,43.89,43.89,0,0,1,4.39-.19,34.22,34.22,0,0,0,6.26-.46,7.48,7.48,0,0,0,1.63-1.07c1.37-1.21,2.36-3.62,3.24-5.75,0.37-.9.72-1.75,1.08-2.48,2.38-5,2.57-9.28,2.8-14.67,0-1.11.1-2.25,0.17-3.45a36.75,36.75,0,0,1,.9-6,78.82,78.82,0,0,1-15.59,1.46,110.88,110.88,0,0,1-35.09-5.91,26.86,26.86,0,0,1-4.89-2.33,27.74,27.74,0,0,1-3.72-2.63A32.12,32.12,0,0,1,1687.39,546.72Z" transform="translate(-54.37 -93.48)"/><path class="cls-1" d="M1637.36,578.37a44.51,44.51,0,0,1-1.57-5,45.68,45.68,0,0,0,1.5,5h0.07Z" transform="translate(-54.37 -93.48)"/><path class="cls-1" d="M1659.6,596.19a100.54,100.54,0,0,0,13.53,2.76l1.8,0.27,2,0.3,1.59,0.24c9.11,1.42,18.67,2.12,27.9,2.8l4.29,0.32a108.85,108.85,0,0,0,10.88.93c1.12,0.11,2.26.19,3.36,0.32a58.56,58.56,0,0,0,6.37.37,43.52,43.52,0,0,0,13.74-2.17,60.69,60.69,0,0,0,11.71-5.36,164,164,0,0,0,24.74-17.32c6.86-5.84,14.41-18.22,14.87-29.66a20,20,0,0,0-2.59-11.26c-0.28-.47-0.59-0.92-0.92-1.36a17.35,17.35,0,0,0-1.68-2,18.83,18.83,0,0,0-1.57-1.39c-0.23-.06-0.45-0.12-0.7-0.16l-0.16,0-0.47,0a11.57,11.57,0,0,0-1.49-.07,16.11,16.11,0,0,0-1.76.12h-0.13a17.88,17.88,0,0,0-2.31.48,19.19,19.19,0,0,0-2.86,1.07,31.6,31.6,0,0,0-10.47,8.45,31,31,0,0,0-4.8,8.36q-0.59,1.52-1,3.08c-0.14.49-.29,1-0.42,1.49-0.59,2.24-1.08,4.59-1.67,7.17-0.32,1.39-.66,2.68-1,3.93-3.1,11.16-7,16.17-8.53,15.55-0.21.52-.43,1-0.69,1.58a28.28,28.28,0,0,1-4.66,7.52c-0.17.17-.31,0.38-0.49,0.53-3.07,2.7-7.66,2.76-11.7,2.8-1.5,0-2.91,0-4.15.18a41.47,41.47,0,0,1-5.45.17c-2,0-4-.17-6-0.31-1.34-.09-2.63-0.18-3.85-0.24l-6.53-.21c-3.14-.1-6.24-0.2-9.32-0.32-7-.29-14-0.73-21.27-1.69-1.17-.15-2.33-0.3-3.52-0.49-2.47-.38-4.8-0.82-7-1.29a85.24,85.24,0,0,1-9.85-2.68l-0.73-.26c-0.65-.23-1.3-0.47-1.92-0.72s-1.46-.6-2.15-0.92c-1.26-.58-2.87-1.38-4.48-2.19-1.43-.72-3.34-1.67-4.71-2.29C1645,586.31,1649.62,593.24,1659.6,596.19Z" transform="translate(-54.37 -93.48)"/><path class="cls-1" d="M1763.45,536.11l-0.1.08v0Z" transform="translate(-54.37 -93.48)"/><path class="cls-1" d="M1758.5,497.7a8,8,0,0,1-.7-0.46,8.32,8.32,0,0,0,.7.49v0Z" transform="translate(-54.37 -93.48)"/><path class="cls-1" d="M1763.55,498.77a7.8,7.8,0,0,1-.91.09h-0.24c-0.15,0-.29,0-0.44,0a8,8,0,0,1-1-.12c-0.23,0-.44-0.11-0.66-0.17l-0.34-.09-0.37-.13a8.39,8.39,0,0,1-.8-0.36l-0.43-.23-0.18-.1-0.68,45c0.25-.47.57-0.94,0.88-1.4s0.44-.89.66-1.3a21.67,21.67,0,0,1,4-5.31l0-1.83,0.48-32.06Z" transform="translate(-54.37 -93.48)"/><path class="cls-1" d="M1758.68,497.82l-0.18-.12v0Z" transform="translate(-54.37 -93.48)"/><path class="cls-1" d="M993,369.64c32,0,57.09-12.8,76.78-39.45v47.42c0,32.27,10.53,59.59,28.18,78.85h1.69l-1.35-2h98.24l13.9,23.94c34.83-15.53,58.19-51.44,58.19-101.25h-65.06c0,34.61-10.09,48.5-30.36,48.5-21.85,0-34.11-11.76-34.11-47.42V100.44h-66.64l-0.54,32c-16.52-26.65-41-39-73-39-66.1,0-113.56,52.26-113.56,140.75C885.28,313.63,925.27,369.64,993,369.64ZM1014.81,150c33.07,0,58.68,30.94,58.68,75.15,0,57.05-19.73,85.33-58.14,85.33-40.54,0-59.72-27.19-59.72-81.07C955.64,182.51,980.16,150,1014.81,150Z" transform="translate(-54.37 -93.48)"/><path class="cls-1" d="M1473.77,515.2V488h-22.61l-0.37-1-1.54-2.25s2.29-3.75,2.42-4.17,12.47-15.89,12.47-15.89l2.54-1.63,0.29-.67-0.12-1.08,0.46-.79,2.5-1.79,0.08,0.08,6.67,5.09S1489,485,1491.83,490.29s3.63,2.17,5.26,3.38,4.13,1,.21-6.88-15.68-30.61-15.68-30.61-2.42-11.18-2.59-11a3.73,3.73,0,0,0,1.67,1.58l-2.71-4s6.26-.54,10.76,7c-0.88-4.17-2.38-5.72-2.38-5.72l10.18,5.63a161.06,161.06,0,0,1-18.77-19.52c-8.93-11.09-14.6-17.93-23.69-24.44-1.17-2.42-3.75-3.67-4.63-8.47s-5.5-13.05-19.77-13.64c-6.46-.25-12.05,2.54-16.1,8.59-6.3,1.92-13.43,4.92-13.43,4.92l13.43,1.79a31.81,31.81,0,0,1,4.84,9.21c-0.58,3.59-6.34,11.35-1.63,25.36s9.43,17.27,9.43,17.27c-0.13-.67-0.21-1.17-0.21-1.17s12.3,10.17,17.31,12.26a38.36,38.36,0,0,1-6.84,5.92l-0.54,1.25v0.58l0.63,2.25-0.88,1.59,1,0.62,1.42,1.54,1.83,0.79-1.25-2.21-0.79-.67,1.34-2.34,2.21,0.21-2-1.79a3.61,3.61,0,0,1,.88-1.67c0.71-.58,5.3-5.42,5.3-5.42a3.89,3.89,0,0,1,4.5,1.67c1-.88-0.88-2.5-0.88-2.5s9.72,0.25,11.34.25,1.83,0.83,1.83.83l-14.26,18.89-5,3-6,2.79-0.41.59h-11.59l1.66,15.26-1.84.65-22.14,8a6.58,6.58,0,0,0-.67.15V758.83h71.52V721c-19-25.52-29.28-60.94-29.28-104.5C1444.49,573.44,1454.55,539.35,1473.77,515.2Zm-26-29.7c0.22,0.14,1.36,1.58,2.37,2.55h-2.37V485.5Zm-9,2.55s6.6-3.46,6.23-3.12a51.29,51.29,0,0,1-4.53,3.12h-1.69Zm3.81,0a47.91,47.91,0,0,1,3.9-2.87,19.45,19.45,0,0,1-.14,2.87h-3.75Z" transform="translate(-54.37 -93.48)"/><path class="cls-1" d="M1728,352.91l-8.37-42.63a10.92,10.92,0,0,1-10.53-9.33l-2.5-17.6a10.78,10.78,0,0,1,.51-4.88h-26.61C1681.08,311.31,1698.35,337.23,1728,352.91Z" transform="translate(-54.37 -93.48)"/><path class="cls-1" d="M1768.18,487.33l0-.3a5.79,5.79,0,0,0-.34-1.25A7.6,7.6,0,0,0,1765,484a7.15,7.15,0,0,0-3-.39l-0.28,0a4.08,4.08,0,0,0-.61.07,7.51,7.51,0,0,0-3.63,1.79,7.61,7.61,0,0,0-2.51,6.67l0,0.32a7.17,7.17,0,0,0,.35,1.27,7.67,7.67,0,0,0,3,1.9,7.21,7.21,0,0,0,2.37.4,7,7,0,0,0,1.43-.15,7.73,7.73,0,0,0,1.26-.4,9.29,9.29,0,0,0,2.66-1.7,7.68,7.68,0,0,0,1.79-2.84A7.52,7.52,0,0,0,1768.18,487.33Z" transform="translate(-54.37 -93.48)"/><path class="cls-1" d="M1756.83,481.7a8.86,8.86,0,0,1,4.8-1.19,6.41,6.41,0,0,1,3.5.83L1741,358.8l-9.76-49.67a10.59,10.59,0,0,1-3.27,1.23c-0.2,0-.39.11-0.59,0.14l-2.34.33a11.14,11.14,0,0,1-1.77.07l8.63,44Z" transform="translate(-54.37 -93.48)"/><path class="cls-1" d="M1642,500.9a8,8,0,0,0,2.81,1.75,7.53,7.53,0,0,0,2.55.45h0a7.57,7.57,0,0,0,1.41-.14,7,7,0,0,0,1.05-.33l0.3-.1a7.41,7.41,0,0,0,2.09-1.28,7.5,7.5,0,0,0,1.95-2.53,7.49,7.49,0,0,0,.6-4.69,5.06,5.06,0,0,0-3.15-2.95,7.4,7.4,0,0,0-3.07-.41l-0.29,0a4.17,4.17,0,0,0-.6.05,7.47,7.47,0,0,0-3.54,1.8,7.56,7.56,0,0,0-.7.72,7.68,7.68,0,0,0-1.75,6.45A7.24,7.24,0,0,0,1642,500.9Z" transform="translate(-54.37 -93.48)"/><path class="cls-1" d="M1643.25,489.49c1.55-1,4.4-1.08,4.69-1.08a10.78,10.78,0,0,1,3.56.82l-28.06-142.73-6.1-31.06a10.93,10.93,0,0,1-4.78,2l-2.38.33c-0.25,0-.5,0-0.75,0l6.65,33.82Z" transform="translate(-54.37 -93.48)"/><path class="cls-1" d="M1608.25,278.54a10.7,10.7,0,0,0-1.51.09l-2.42.29a10.87,10.87,0,0,0-8.56,6.84,10.72,10.72,0,0,0-.7,5.46l2,14a10.8,10.8,0,0,0,10.87,6.84c0.24,0,.48,0,0.72,0l2.33-.33a10.79,10.79,0,0,0,4.84-2,5,5,0,0,0,1.62-1.57c-4.93-.78-8-5.2-8.12-12.34-0.05-5.06,3-10.06,7.65-11.37,0.13,0,.05-0.11.18-0.14C1615.58,280,1612.82,278.52,1608.25,278.54Zm-5.81,7.22a2.3,2.3,0,0,1-4.5,0s0-.08-0.05-0.12a2.36,2.36,0,0,1,1.83-2.75,2.32,2.32,0,0,1,2.75,1.83A2.4,2.4,0,0,1,1602.44,285.76Z" transform="translate(-54.37 -93.48)"/><path class="cls-1" d="M1610.9,296.2l0.17,2a10.43,10.43,0,0,0,6.8,8.95c0.12,0,.24.06,0.36,0.1l0.39,0.1a10.45,10.45,0,0,0,3.21.44c-0.32,3.09-1,5-3,6.93l5.87,30.22c19-14.3,32-33.37,39.76-59.54h-46.07A10.3,10.3,0,0,0,1610.9,296.2Z" transform="translate(-54.37 -93.48)"/><path class="cls-1" d="M1549.26,369.64c24,0,45.57-5.59,63.73-16.19l-7.06-36-0.07-.34c-0.31,0-.62,0-0.93,0a10.76,10.76,0,0,1-10.63-9.27l-0.54-3.54,0.05,0.1-2-14.12a10.79,10.79,0,0,1,0-1.14c-6.36,15.92-24.85,25.58-45.66,25.58-34.11,0-56.51-25.57-58.68-65H1668.2c0-104-42.71-156.23-123.15-156.23s-126.91,52.26-126.91,133.25C1418.14,321.64,1461.89,369.64,1549.26,369.64Zm-6.38-221.24c27.23,0,52.8,18.68,53.84,57.55H1489.58C1492.25,169.75,1515.14,148.4,1542.88,148.4Z" transform="translate(-54.37 -93.48)"/><path class="cls-1" d="M1732.13,277.33c-1-2.65-5.2-6.29-9.8-6.26a10.69,10.69,0,0,0-1.46.08l-2.38.33a10.77,10.77,0,0,0-8.54,6.8,11.08,11.08,0,0,0-.72,5.54l2,14a10.84,10.84,0,0,0,9.85,6.85,11.09,11.09,0,0,0,1.74-.09l2.38-.33a10.73,10.73,0,0,0,3.85-1.34,6.4,6.4,0,0,0,2.26-1.76,6.71,6.71,0,0,1-3.28-.9c-3.63-1.82-3.85-8-4.22-11C1722.68,280.36,1730.46,276.94,1732.13,277.33Zm-15.5,1a2.36,2.36,0,0,1-1.85,1.79,2.31,2.31,0,0,1-2.69-1.79,0.39,0.39,0,0,1,0,0,2.31,2.31,0,0,1,1.84-2.75,2.36,2.36,0,0,1,2.75,1.83A2.26,2.26,0,0,1,1716.63,278.29Z" transform="translate(-54.37 -93.48)"/><path class="cls-1" d="M1810.54,260.44c28.24,6.42,42.12,12.84,42.12,32,0,17-21.85,25-48,25-30.9,0-52.8-14.39-52.8-38.91H1733.3a10.39,10.39,0,0,0-7.59,10.88l0.17,2a10.3,10.3,0,0,0,7,8.92H1733v0l0.19,0.07,0,0a9.71,9.71,0,0,0,1.61.4,7.81,7.81,0,0,0,1.81.1c-0.39,3.47-.87,5.57-3.83,7.29l10.68,51.4c18.11,7,37.27,10.08,61.76,10.08,76.24,0,116.23-34.66,116.23-81.61,0-61.31-29.86-66.06-121.57-91.13-27.73-7.46-42.66-14.89-42.66-29.32,0-16.51,14.93-22.4,43.21-22.4,29.82,0,43.67,10.68,46.87,34.66H1914c-3.25-53.8-36.24-86.37-111.43-86.37-82.08,0-112.48,34.66-112.48,74.11C1690.05,212,1708.69,238.09,1810.54,260.44ZM1733,300.33l-0.12,0H1733v0Z" transform="translate(-54.37 -93.48)"/><path class="cls-1" d="M1733,300.33v0h-0.13Z" transform="translate(-54.37 -93.48)"/><path class="cls-1" d="M1120.23,727c10-4.21,20.41-18.51,20.85-19.12,1.25-1.95,128.57-199.84,130.67-202.39,9.57-11.87,20.26-17.81,25.06-19.44l24-8.1-1.17-11-25.78,8.71c-4.51,1.58-14.54,7.24-23.49,18.4-2,2.54-86.24,133.35-130.5,202.17-0.42.71-11,18.23-22,23-6.58,2.79-14.76,6-20.67,8.37l-0.11.77c0,0.11,0,.28-0.07.52a3.57,3.57,0,0,1,2.78-1.94l0.37,0a3.5,3.5,0,0,1,.39,7l-0.42,0a3.53,3.53,0,0,1-3.35-2.53c-0.07,1.13-.11,2.49-0.08,4C1104.3,732.92,1114.12,729.65,1120.23,727Z" transform="translate(-54.37 -93.48)"/><polygon class="cls-1" points="1045.72 634.62 1045.72 634.62 1045.73 634.59 1045.72 634.62"/><path class="cls-1" d="M1269.8,653l26.39-41,22.15-34.37-21.61,33.53Z" transform="translate(-54.37 -93.48)"/><path class="cls-1" d="M1274.85,543.32l8.24-12.57a102,102,0,0,1,10.44-15.92,98.53,98.53,0,0,0-10.43,15.91Z" transform="translate(-54.37 -93.48)"/><path class="cls-1" d="M1281.1,529.58s5.7-11.16,12.93-18.81c4-4.24,7.76-6.62,11.15-7.08l19.07-6.92-1.55-14.56-0.05,0-24.36,8.23c-4.33,1.47-14,6.92-23,18-1.82,2.34-79,122.13-130.43,202.07-0.5.7-11.54,16-22.85,20.77-6.49,2.78-17,6.26-25,8.79a14.73,14.73,0,0,0,2.92,7.26,7.09,7.09,0,0,0,5.88,2.56l2,0.11q1.5,0.07,3.58.12c1.62,0,3.49.08,5.57,0.1l15.67-5.35c4-.42,12.75-9.57,17.73-15.94Z" transform="translate(-54.37 -93.48)"/><path class="cls-1" d="M1152.3,730.29h0l-0.07.09Z" transform="translate(-54.37 -93.48)"/><polygon class="cls-1" points="1148.58 641.01 1148.58 641.03 1148.58 641.03 1148.58 641.01"/><polygon class="cls-1" points="930.63 411.23 943.41 433.79 1040.27 392.9 1020.64 358.6 930.63 411.23"/><polygon class="cls-1" points="1337.3 392.95 1337.3 392.98 1337.3 392.98 1337.3 392.95"/><path class="cls-1" d="M1094.15,717.75c0.34-.07,16.66-3,25.07-10.42a109.21,109.21,0,0,0,7.08-17.43h-57.08c-4.38,14.68-20.32,24.48-40,24.48-28.6,0-48.24-21.73-50-55.35l-0.06-1.22h150.65c-0.31-84.86-34.44-127.89-101.48-127.89-32.25,0-58.93,10.33-77.16,29.86-17.93,19.2-27.4,46.9-27.4,80.08,0,78.27,36.39,118,108.15,118,18.08,0,34.5-3.79,48.82-11.27-0.91-22.59,9.81-27.67,13.15-28.7Zm-113.2-95.27c2.15-29.35,20.47-49.07,45.61-49.07,22.24,0,45.11,15.19,46.07,49.12l0,1.19h-91.8Z" transform="translate(-54.37 -93.48)"/><path class="cls-1" d="M1239.37,696l11.28-17.53c10.44-16.22,26.82-41.66,44.14-68.56,25.93-40.25,58.76-91.17,70.57-109.32l-37.56-.19L1306,508.25c-6.72.7-16.37,14.88-20.87,23.66L1154.18,731.63c-2.22,2.86-13.35,16.7-20.71,17.8l-2.38.82c14.56-.09,31.11-0.5,37.55-1.18,5.13-.56,9.91-7.14,14.13-12.95l0.16-.22c4.17-5.74,8.13-11.14,12.73-10.87,1.88-.83,13.09-5.78,22.87-9.93C1228.48,710.9,1238.93,696.6,1239.37,696Z" transform="translate(-54.37 -93.48)"/><path class="cls-1" d="M1195.14,733.6a26.63,26.63,0,0,0-.59-3.63c-2.29,1.09-5.42,5.45-7.75,8.69-4.87,6.72-10.36,14.31-17.67,15.07-7.95.87-28.57,1.26-44.37,1.26-2.75,0-5.27,0-7.57,0l-3.42,0-3.3-.08c-1.69-.05-3-0.12-4.07-0.2l-0.78-.06a12.85,12.85,0,0,1-2.13-.2,11.3,11.3,0,0,1-7.1-4c-2.05-2.41-3.42-5.87-4.07-10.26-0.08-.54-0.13-0.87-0.16-1.2s-0.08-.81-0.11-1.22a45.87,45.87,0,0,1-.1-5.5l-0.19.17c-3.49,3.16-9,11.24-7.48,30.06l105.94-1.76,0.21-.26,0.2-.24a12.59,12.59,0,0,0,1.32-1.95c1.7-3.1,2.84-7.67,3.28-13.22A65.72,65.72,0,0,0,1195.14,733.6Z" transform="translate(-54.37 -93.48)"/><polygon class="cls-1" points="1241.84 660.01 1335.68 660.01 1260.23 547.28 1215.75 615.13 1241.84 660.01"/><path class="cls-1" d="M1398.49,477.88a4,4,0,0,1,.58-0.1,4.3,4.3,0,0,1,.92,8.55l-0.45,0a4.29,4.29,0,0,1-1.76-8.24l-1.18.41c-4.28,1.39-13.91,6.73-23,18,0,0.06-.45.65-2.67,4.05-9.93,15.2-45,69.68-72.77,112.71-17.5,27.16-34,52.75-44.24,68.7l-10.71,16.63c-0.5.7-11.54,16-22.86,20.77-7.92,3.36-16.95,7.32-21.3,9.24a45.29,45.29,0,0,1,1.17,9.66c0,0.53,0,1.25,0,2.08s0,2.11-.1,3.36c-0.24,4.3-1,10.12-3.1,15l35.38-12.09c4-.42,12.77-9.57,17.73-15.93l130.72-199.36c0.06-.13,12.37-24.25,24.07-25.89l19.08-7-3-28.2C1415.64,472.06,1403.66,476.11,1398.49,477.88ZM1205.07,737.77a2.62,2.62,0,0,1-1.89,1h0a2.83,2.83,0,0,1-2.93-2.37,2.77,2.77,0,0,1,.61-2,2.71,2.71,0,0,1,1.85-1h0.26a2.78,2.78,0,0,1,2.7,2.42A2.6,2.6,0,0,1,1205.07,737.77Zm7.19-5.64a4.51,4.51,0,0,1-3,1.68l-0.51,0a4.47,4.47,0,0,1-.43-8.92l0.48,0a4.47,4.47,0,0,1,4.44,4A4.41,4.41,0,0,1,1212.26,732.13Zm181.67-242.06a2.84,2.84,0,0,1-2,1h-0.26a2.85,2.85,0,0,1-2.9-2.65,2.81,2.81,0,0,1,.62-2.09,2.87,2.87,0,0,1,2-1.07h0.26a2.91,2.91,0,0,1,2.95,2.65A3,3,0,0,1,1393.93,490.07Z" transform="translate(-54.37 -93.48)"/><path class="cls-1" d="M1194.63,456.73h-92.07l92,138.67c14.56-22.6,29.79-46.23,42.66-66.16l-29-50-0.42.18Z" transform="translate(-54.37 -93.48)"/><path class="cls-1" d="M1194.63,456.73l13.2,22.74,0.42-.18-13.1-22.56h-0.53Z" transform="translate(-54.37 -93.48)"/></svg>