<svg id="Capa_1" data-name="Capa 1" xmlns="http://www.w3.org/2000/svg" viewBox="0 0 278.51 99.19"><defs><style>.cls-1{fill:#e5e5e6;}.cls-2{fill:#518548;}.cls-3{fill:#abca50;}.cls-4{fill:#fff;}.cls-5{fill:#456437;}.cls-6{fill:#dd902f;}.cls-7{fill:#d56f2c;}</style></defs><title>portada movil</title><path class="cls-1" d="M351.16,166.44h0l1,0.73s1.81,3.07,2.21,3.83,0.53,0.32.76,0.49,0.6,0.15,0-1-2.27-4.44-2.27-4.44-0.35-1.61-.37-1.59a0.53,0.53,0,0,0,.24.24l-0.4-.59a1.77,1.77,0,0,1,1.56,1,1.77,1.77,0,0,0-.35-0.84l1.48,0.81a22.85,22.85,0,0,1-2.73-2.82,16.55,16.55,0,0,0-3.42-3.54,3.29,3.29,0,0,1-.67-1.22c-0.12-.69-0.79-1.9-2.87-2A2.58,2.58,0,0,0,343,156.8c-0.9.27-1.94,0.72-1.94,0.72l1.94,0.26a4.52,4.52,0,0,1,.71,1.34,5,5,0,0,0-.24,3.67,5.24,5.24,0,0,0,1.38,2.5c0-.1,0-0.18,0-0.18a17,17,0,0,0,2.5,1.79,6,6,0,0,1-1,.86l-0.08.18V168l0.1,0.33-0.13.23,0.14,0.09,0.07,0.38h0.11l0-.16,0.26,0.11-0.18-.32,0.7,0.27,0.18-.14-1-.22,0.19-.33,0.32,0-0.29-.27a0.46,0.46,0,0,1,.13-0.24c0.1-.08.77-0.79,0.77-0.79a0.57,0.57,0,0,1,.65.24c0.15-.13-0.13-0.37-0.13-0.37l1.64,0a0.24,0.24,0,0,1,.27.11L348,169.76l-0.72.43-0.86.4-0.13.19,0.78-.22s0.51-.33.46-0.29-1.17.72-1.17,0.72-1.26.73,0,.08l1.21-.65s-0.43.4-.5,0.48,0,0.15.05,0.09a5.54,5.54,0,0,1,.53-0.32l0,0.47s0.19,0.18.24,0,0.1-.34.1-0.34v-0.44c0.07,0,.59.54,0.59,0.54l-0.14-.36-0.23-.34s0.34-.54.35-0.6,1.8-2.29,1.8-2.29l0.37-.23,0-.1v-0.16l0.06-.11Z" transform="translate(-144.28 -113.56)"/><path class="cls-2" d="M351.52,166.48l0,0,1,0.73s1.81,3.06,2.21,3.82,0.53,0.32.76,0.49,0.6,0.15,0-1-2.27-4.44-2.27-4.44-0.35-1.61-.37-1.6a0.53,0.53,0,0,0,.24.24l-0.4-.59a1.77,1.77,0,0,1,1.56,1,1.71,1.71,0,0,0-.35-0.83l1.48,0.81a22.83,22.83,0,0,1-2.73-2.82,16.75,16.75,0,0,0-3.42-3.54,3.25,3.25,0,0,1-.68-1.23c-0.12-.69-0.79-1.9-2.87-2a2.59,2.59,0,0,0-2.33,1.24c-0.91.28-1.95,0.72-1.95,0.72l1.95,0.25a4.5,4.5,0,0,1,.7,1.34,5,5,0,0,0-.24,3.67,5.16,5.16,0,0,0,1.38,2.5l0-.17a17.34,17.34,0,0,0,2.5,1.78,5.66,5.66,0,0,1-1,.86l-0.08.18V168l0.09,0.33-0.13.22,0.15,0.1,0.06,0.38h0.11l0-.16,0.26,0.11-0.18-.32,0.7,0.27,0.17-.14-1-.22,0.19-.34,0.32,0-0.29-.27a0.47,0.47,0,0,1,.13-0.24c0.1-.08.77-0.78,0.77-0.78a0.56,0.56,0,0,1,.65.24c0.15-.13-0.13-0.36-0.13-0.36l1.64,0a0.24,0.24,0,0,1,.27.12l-2.07,2.74-0.72.44-0.86.4-0.13.19,0.78-.22s0.52-.33.47-0.28-1.16.72-1.16,0.72-1.26.73-.05,0.08l1.21-.66s-0.43.4-.5,0.48,0,0.15,0,.08,0.53-.32.53-0.32l0,0.48s0.19,0.18.24,0l0.1-.33V170.4c0.06,0,.59.55,0.59,0.55l-0.14-.37-0.22-.33s0.33-.54.35-0.6,1.8-2.3,1.8-2.3l0.37-.23,0-.1,0-.16,0.06-.11Z" transform="translate(-144.28 -113.56)"/><path class="cls-1" d="M340.69,211.68V172.45h10.37v39.23H340.69Z" transform="translate(-144.28 -113.56)"/><path class="cls-2" d="M341.73,210V170.72H352.1V210H341.73Z" transform="translate(-144.28 -113.56)"/><path class="cls-1" d="M383,190.61c0-12.35,7.68-20.51,20-20.51,12.19,0,19.79,8.08,19.79,20.51s-7.68,20.51-19.79,20.51C390.41,211.12,383,202.73,383,190.61Zm29.46-.7c0-7.92-3.17-11.8-9.42-11.8s-9.42,3.88-9.42,11.8,3.17,11.88,9.42,11.88S412.42,197.83,412.42,189.92Z" transform="translate(-144.28 -113.56)"/><path class="cls-1" d="M387,196c-1.13,9.23-8.66,15.46-18.29,15.46-10.85,0-18.3-7.2-18.3-21.45s7.45-20.49,18.62-20.49c10.37,0,17.41,5.91,18.06,15.3H376.48a7.22,7.22,0,0,0-7.53-6.56c-4.46,0-8.1,2.84-8.1,11.5s3.65,12.88,7.77,12.88,7.37-2.35,7.77-6.64H387Z" transform="translate(-144.28 -113.56)"/><path class="cls-3" d="M384.8,195.33c-1.14,9.23-8.66,15.46-18.3,15.46-10.85,0-18.3-7.21-18.3-21.45s7.45-20.49,18.62-20.49c10.37,0,17.41,5.91,18.06,15.3H374.27a7.22,7.22,0,0,0-7.53-6.56c-4.46,0-8.1,2.83-8.1,11.5S362.29,202,366.42,202s7.37-2.34,7.77-6.64H384.8Z" transform="translate(-144.28 -113.56)"/><path class="cls-4" d="M366.5,211.14c-11.68,0-18.65-8.15-18.65-21.8,0-13.43,6.74-20.83,19-20.83,10.53,0,17.75,6.13,18.41,15.63l0,0.37H374l0-.3a6.87,6.87,0,0,0-7.18-6.26c-5.07,0-7.75,3.86-7.75,11.15,0,9.24,4,12.53,7.43,12.53,4.21,0,7.06-2.42,7.42-6.32l0-.32h11.32l0,0.39C384,204.66,376.33,211.14,366.5,211.14Zm0.32-41.94c-12,0-18.27,7-18.27,20.14s6.71,21.11,18,21.11c9.33,0,16.64-6.05,17.9-14.76h-9.9c-0.52,4-3.66,6.64-8.08,6.64-3.75,0-8.12-3.46-8.12-13.22s4.59-11.84,8.45-11.84a7.49,7.49,0,0,1,7.83,6.56h9.93C383.71,174.79,377,169.2,366.82,169.2Z" transform="translate(-144.28 -113.56)"/><path class="cls-3" d="M381,190c0-12.35,7.68-20.51,20-20.51,12.19,0,19.8,8.08,19.8,20.51s-7.68,20.51-19.8,20.51C388.44,210.47,381,202.08,381,190Zm29.45,0c0-7.92-3.17-11.8-9.42-11.8s-9.42,3.88-9.42,11.8,3.17,11.88,9.42,11.88S410.46,197.88,410.46,190Z" transform="translate(-144.28 -113.56)"/><path class="cls-4" d="M401,210.82c-12.38,0-20.38-8.19-20.38-20.86s8-20.86,20.38-20.86,20.14,8.19,20.14,20.86S413.27,210.82,401,210.82Zm0-41c-12,0-19.68,7.91-19.68,20.16s7.73,20.16,19.68,20.16,19.45-7.91,19.45-20.16S412.85,169.8,401,169.8Zm0,32.39c-6.48,0-9.77-4.12-9.77-12.23s3.29-12.15,9.77-12.15,9.77,4.09,9.77,12.15S407.52,202.19,401,202.19Zm0-23.68c-6.11,0-9.08,3.75-9.08,11.45s3,11.53,9.08,11.53,9.07-3.77,9.07-11.53S407.14,178.51,401,178.51Z" transform="translate(-144.28 -113.56)"/><path class="cls-1" d="M204.72,194.79l-2.81,0a7,7,0,0,1,3.42,6.42c0,5.81-4.59,10-12.36,10-7,0-11.9-3.51-11.9-9.46a7.94,7.94,0,0,1,3.61-6.84H173.25v-6h31.48v5.85Zm-11-.09c-5,0-7.49,1.73-7.49,5.1,0,3.56,2.39,5.25,7.12,5.25,4.12,0,7-2.15,7-5.2S197.65,194.7,193.76,194.7Z" transform="translate(-144.28 -113.56)"/><path class="cls-1" d="M194.79,180.92c3.46-.19,5.71-2.15,5.71-5.15,0-2-1-3.7-2.58-4.12v-6.28a10,10,0,0,1,7.4,10.12c0,7.68-4.21,11.52-12.55,11.52-7.12,0-11.71-4.07-11.71-11.15S185.66,165,194.79,165v15.88Zm-3.84-9.6c-3.42.09-5.06,2.34-5.06,4.73s1.87,4.45,5.06,4.68v-9.42Z" transform="translate(-144.28 -113.56)"/><path class="cls-1" d="M263.83,212V182.87c0-5.77-3-9.88-7.53-9.88-4.69,0-8.11,4.4-8.11,10.26V212H235.49V183.07c0-7.72-2.06-9.68-7.63-9.68-5.08,0-7.72,3.13-7.72,9.38V212H207.43V163.91h11.93v7c3.23-6.35,7.72-8.31,14.08-8.31,6.55,0,9.68,2.06,13.39,7.62,2.64-5.28,6.94-7.62,13-7.62,9.68,0,16.42,7,16.42,16V212H263.83Z" transform="translate(-144.28 -113.56)"/><path class="cls-1" d="M279.42,197.93c0.26,4.88,3,8,7.25,8,2.77,0,5.21-1.38,5.8-3.63h8.83c-2,6.66-7.31,10.41-14.23,10.41-10.81,0-16.21-5.93-16.21-17.66,0-10,5.73-16.47,15.68-16.47s15.22,6.46,15.22,19.3H279.42Zm13.51-5.4c-0.13-4.81-3.3-7.12-6.65-7.12s-6.26,2.64-6.59,7.12h13.24Zm-11-13.91-2-3.62,13.64-8,3.1,5.4Z" transform="translate(-144.28 -113.56)"/><path class="cls-1" d="M324.68,211.35l-7.57-13-7.4,13H296l14.53-22.11L296.41,168h13.82l7.31,12.59,6.34,8.63,14.8,22.11h-14Z" transform="translate(-144.28 -113.56)"/><path class="cls-1" d="M166.6,171.53v-56h9.65l0.08,4.63c2.39-3.86,5.95-5.64,10.58-5.64,9.58,0,16.45,7.57,16.45,20.39,0,11.51-5.79,19.62-15.6,19.62a13.09,13.09,0,0,1-11.27-5.95v22.94H166.6Zm26.57-37.3c0-6.8-3.55-11.51-8.57-11.51-4.79,0-8.49,4.48-8.49,10.89,0,8.26,2.86,12.36,8.42,12.36C190.38,146,193.16,142,193.16,134.23Z" transform="translate(-144.28 -113.56)"/><path class="cls-1" d="M229.06,153.53a14.75,14.75,0,0,1-.62-3.4c-2.4,2.63-6.41,4.4-11.51,4.4-8.65,0-12.67-4.25-12.67-10.43,0-11,7.34-12.2,17.45-13.59,5-.69,6.41-1.7,6.41-4.32,0-2.47-2.47-3.94-6.41-3.94-4.55,0-6.41,2.24-6.87,5.64h-9.34c0.15-7.88,4.48-13.36,16.68-13.36,12,0,16.22,5.41,16.22,15v24h-9.34Zm-0.69-18.61c-1,1-2.78,1.54-6.49,2.24-5.72,1.08-7.57,2.7-7.57,5.95,0,2.86,1.7,4.25,4.87,4.25,5.18,0,9-3.78,9.11-8.26Z" transform="translate(-144.28 -113.56)"/><path class="cls-1" d="M242.43,153.53v-38h9.42v4.56c3.32-5.1,7.18-5.56,11.28-5.56h1.31V124.8a16.44,16.44,0,0,0-2.78-.23c-6.18,0-9.19,3.09-9.19,9.19v19.77h-10Z" transform="translate(-144.28 -113.56)"/><path class="cls-1" d="M320.19,155.62c0,9.81-6.25,15.91-14.44,15.91s-14.37-6.49-14.37-15.83v-6.87a13.06,13.06,0,0,1-11.12,5.72c-9.81,0-15.6-8.11-15.6-19.62,0-12.82,6.87-20.39,16.45-20.39,4.63,0,8.19,1.78,10.58,5.64l0.08-4.63h9.65v40.24c0,5.17,1.78,6.87,4.95,6.87,2.93,0,4.4-2,4.4-7h9.42Zm-28.27-22c0-6.41-3.71-10.89-8.49-10.89-5,0-8.57,4.71-8.57,11.51,0,7.8,2.78,11.74,8.65,11.74C289.06,146,291.92,141.87,291.92,133.61Z" transform="translate(-144.28 -113.56)"/><path class="cls-1" d="M330.15,153.53V148.2c-2.62,4.32-6.56,6.33-11.82,6.33-7.57,0-12.9-5.64-12.9-14v-25h10V139c0,4.79,2.16,7.11,6.41,7.11,5.1,0,7.8-3.63,7.8-8.65V115.53h10v38h-9.5Z" transform="translate(-144.28 -113.56)"/><path class="cls-1" d="M351.89,137.16c0.31,5.71,3.55,9.42,8.49,9.42,3.24,0,6.1-1.62,6.8-4.25h10.35c-2.32,7.8-8.57,12.2-16.68,12.2-12.67,0-19-7-19-20.7,0-11.74,6.72-19.31,18.38-19.31s17.84,7.57,17.84,22.63H351.89Zm15.83-6.33c-0.15-5.64-3.86-8.34-7.8-8.34s-7.34,3.09-7.72,8.34h15.52Z" transform="translate(-144.28 -113.56)"/><path class="cls-1" d="M404,127c-0.46-3.48-2.47-5-6.8-5-4.09,0-6.26.85-6.26,3.24,0,2.09,2.16,3.17,6.18,4.25,13.28,3.63,17.61,4.33,17.61,13.21,0,6.8-5.79,11.82-16.84,11.82-10.89,0-17.92-5.18-18.07-13.21H390.2c0,3.55,3.17,5.64,7.65,5.64,3.78,0,7-1.16,7-3.63,0-2.78-2-3.71-6.1-4.63-14.75-3.25-17.45-7-17.45-13.44,0-5.71,4.4-10.74,16.3-10.74,10.89,0,15.68,4.71,16.14,12.51H404Z" transform="translate(-144.28 -113.56)"/><path class="cls-1" d="M166.59,125.57c0.2-.64.29-1.17-0.51-1.27a0.59,0.59,0,0,1,.49.79,29.56,29.56,0,0,0-1.13,3.82,11.6,11.6,0,0,1,.43-4.16c0.08-.7.08-1.26-0.75-1.22a0.62,0.62,0,0,1,.65.72,23.21,23.21,0,0,0-.43,5.24,5,5,0,0,0-.05.7,0.34,0.34,0,0,0-.1.31c-0.11.2-.87-0.31-1,0.38,0,0-7-10.25-19.89-7.12-0.25.06,0.13,1,.65,1.32s0.82,1.12,1.41,1.46a3.58,3.58,0,0,1,1.11,1c0.21,0.27-.14.46,0.5,0.82s0.88,0.18.94,0.39a3.77,3.77,0,0,0,1.2,2.11c1,1,2.1,2.46,2.46,2.67a1,1,0,0,0,.82,0l-0.13.27s1.28,1.07,2.11.54a0.63,0.63,0,0,0-.12.67s-1.34,1.31-1,2.41a1.19,1.19,0,0,0,.92-0.48,8.44,8.44,0,0,0-1.17,2.62,0.48,0.48,0,0,1,.43.18l0.29,0.23,0.13,0a3.07,3.07,0,0,0-.73,2.51l0.31-.08,0.11,0.33,0.09,0a8.55,8.55,0,0,0-.18,1.52,0.19,0.19,0,0,0,.25-0.06l0.37,0,0.31,0.06-0.13,1.14,0.19,0,0.08,0,0.43-.41,0.11,0.06,0.16,0,0.11,0.15,0.24,0.14,0.18,0.07-0.07.34,0.44-.57,0.24-.11,0.27-.17,0.22-.13,0.16-.07,0.22-.55,0.17-.39,0.17-.11,0.15,0.09,0.18-.11s1.16-3.86,1.48-4.81a15.5,15.5,0,0,1,2.08-3.8,6.69,6.69,0,0,0-.57,5.88c0.32,0.18.83-.58,1.06-1a26.15,26.15,0,0,0,.61-2.95c0.26-1.13.59-1.77,0.34-1.9s0.18-.16.18-0.16l0.31,0.17,0.47,0.38,1.56,0.33,1.55,1-1.43-1-1.62-.42,0-.2,0.22-.11,0.22-.33,1.71,0.77,1.13,0-1.07-.12-1.86-.82,1.19-.39,1-.58-1.13.47-1.07.4,0-.74,0.1-.35,0-.3-0.06-.29,0-.28,0.33,0.7v0.44l0.31,0.19,1.79-.33-1.73.18v-0.36l0-.21v-0.28l-0.26-1.2,0.19-.17,0.24-.11,0.12-.59a1.57,1.57,0,0,0-.4-0.54,0.47,0.47,0,0,0-.38.05c0-.14,0-0.32,0-0.53A11.14,11.14,0,0,1,166.59,125.57ZM165.47,130l0,0a1.24,1.24,0,0,1,0-.13S165.45,130,165.47,130Z" transform="translate(-144.28 -113.56)"/><path class="cls-2" d="M168.78,170.56v-56h9.66l0.07,4.64c2.4-3.86,5.95-5.64,10.58-5.64,9.58,0,16.45,7.57,16.45,20.39,0,11.51-5.79,19.62-15.6,19.62a13.1,13.1,0,0,1-11.28-5.95v22.94h-9.89Zm26.57-37.3c0-6.8-3.55-11.51-8.57-11.51-4.79,0-8.5,4.48-8.5,10.89,0,8.26,2.86,12.36,8.42,12.36C192.57,145,195.35,141.05,195.35,133.25Z" transform="translate(-144.28 -113.56)"/><path class="cls-2" d="M231.25,152.56a14.64,14.64,0,0,1-.62-3.4c-2.39,2.63-6.41,4.4-11.51,4.4-8.65,0-12.67-4.25-12.67-10.43,0-11,7.33-12.2,17.46-13.59,5-.69,6.41-1.7,6.41-4.32,0-2.47-2.47-3.94-6.41-3.94-4.56,0-6.41,2.24-6.88,5.64h-9.34c0.15-7.88,4.48-13.36,16.68-13.36,12,0,16.22,5.41,16.22,15v24h-9.34Zm-0.7-18.61c-1,1-2.78,1.54-6.49,2.24-5.71,1.08-7.57,2.7-7.57,5.95,0,2.86,1.7,4.25,4.87,4.25,5.18,0,9-3.78,9.11-8.26Z" transform="translate(-144.28 -113.56)"/><path class="cls-2" d="M244.61,152.56v-38H254v4.56c3.32-5.1,7.18-5.56,11.28-5.56h1.31v10.27a16.77,16.77,0,0,0-2.78-.23c-6.18,0-9.19,3.09-9.19,9.19v19.77h-10Z" transform="translate(-144.28 -113.56)"/><path class="cls-2" d="M322.37,154.65c0,9.81-6.26,15.91-14.44,15.91s-14.36-6.49-14.36-15.83v-6.87a13.07,13.07,0,0,1-11.12,5.72c-9.81,0-15.6-8.11-15.6-19.62,0-12.82,6.87-20.39,16.45-20.39,4.63,0,8.19,1.78,10.58,5.64l0.08-4.64h9.65V154.8c0,5.17,1.78,6.88,4.94,6.88,2.94,0,4.4-2,4.4-7h9.42Zm-28.27-22c0-6.41-3.71-10.89-8.49-10.89-5,0-8.57,4.71-8.57,11.51,0,7.8,2.78,11.74,8.65,11.74C291.25,145,294.1,140.9,294.1,132.64Z" transform="translate(-144.28 -113.56)"/><path class="cls-2" d="M332.34,152.56v-5.33c-2.63,4.32-6.56,6.33-11.82,6.33-7.57,0-12.9-5.63-12.9-14v-25h10V138c0,4.79,2.16,7.11,6.41,7.11,5.1,0,7.8-3.63,7.8-8.65V114.56h10v38h-9.5Z" transform="translate(-144.28 -113.56)"/><path class="cls-2" d="M354.08,136.19c0.31,5.72,3.55,9.42,8.5,9.42,3.24,0,6.1-1.62,6.8-4.25h10.35c-2.32,7.8-8.58,12.2-16.68,12.2-12.67,0-19-7-19-20.7,0-11.74,6.72-19.31,18.38-19.31s17.84,7.57,17.84,22.63H354.08Zm15.83-6.33c-0.15-5.64-3.86-8.34-7.8-8.34s-7.34,3.09-7.72,8.34h15.52Z" transform="translate(-144.28 -113.56)"/><path class="cls-2" d="M406.21,126.07c-0.46-3.48-2.47-5-6.79-5-4.09,0-6.26.85-6.26,3.24,0,2.09,2.16,3.17,6.18,4.25,13.28,3.63,17.61,4.32,17.61,13.21,0,6.8-5.79,11.82-16.84,11.82-10.89,0-17.92-5.18-18.07-13.21h10.35c0,3.55,3.17,5.64,7.65,5.64,3.78,0,6.95-1.16,6.95-3.63,0-2.78-2-3.7-6.1-4.63-14.75-3.24-17.46-7-17.46-13.44,0-5.71,4.4-10.74,16.3-10.74,10.89,0,15.68,4.71,16.14,12.51h-9.65Z" transform="translate(-144.28 -113.56)"/><path class="cls-2" d="M168.78,124.6c0.2-.64.29-1.17-0.51-1.27a0.59,0.59,0,0,1,.49.79,29.94,29.94,0,0,0-1.13,3.82,11.6,11.6,0,0,1,.43-4.16c0.09-.7.09-1.26-0.75-1.22a0.62,0.62,0,0,1,.65.72,23.2,23.2,0,0,0-.43,5.24,5.49,5.49,0,0,0-.05.7,0.34,0.34,0,0,0-.1.31c-0.12.2-.87-0.31-1,0.38,0,0-7-10.25-19.89-7.12-0.25.06,0.13,1,.65,1.32s0.82,1.12,1.41,1.46a3.64,3.64,0,0,1,1.11,1c0.21,0.27-.14.46,0.5,0.82s0.88,0.18.94,0.39a3.75,3.75,0,0,0,1.2,2.11c1,1,2.1,2.46,2.46,2.67a1,1,0,0,0,.82,0l-0.13.27s1.28,1.08,2.11.54a0.64,0.64,0,0,0-.12.67s-1.34,1.31-1,2.41a1.19,1.19,0,0,0,.91-0.48,8.44,8.44,0,0,0-1.17,2.62,0.48,0.48,0,0,1,.43.18L156.9,139l0.12,0a3.07,3.07,0,0,0-.73,2.51l0.31-.08,0.11,0.33,0.09,0a8.79,8.79,0,0,0-.18,1.52,0.19,0.19,0,0,0,.26-0.06l0.37,0,0.31,0.06-0.13,1.14,0.19,0,0.08,0,0.43-.41,0.1,0.06,0.16,0,0.11,0.15,0.24,0.14,0.18,0.07-0.07.34,0.44-.57,0.24-.1,0.27-.17,0.21-.13,0.16-.07,0.22-.55,0.17-.39,0.17-.11,0.15,0.09,0.18-.11s1.16-3.86,1.48-4.81a15.61,15.61,0,0,1,2.08-3.8,6.69,6.69,0,0,0-.57,5.88c0.32,0.18.83-.57,1.06-1a25.68,25.68,0,0,0,.61-2.95c0.26-1.13.59-1.77,0.34-1.9s0.18-.16.18-0.16l0.3,0.17,0.48,0.38,1.56,0.32,1.55,1-1.43-1-1.62-.42,0-.19,0.22-.11,0.22-.33,1.72,0.77,1.13,0-1.07-.12-1.86-.82,1.19-.39,1-.58-1.13.46-1.07.4,0-.74,0.1-.35,0-.3-0.06-.29,0-.28,0.33,0.71v0.44l0.31,0.19,1.79-.33-1.73.18V132.1l0-.21v-0.27l-0.25-1.2,0.19-.17,0.24-.11,0.11-.6a1.54,1.54,0,0,0-.4-0.54,0.47,0.47,0,0,0-.38,0c0-.14,0-0.32,0-0.53A11.09,11.09,0,0,1,168.78,124.6Zm-1.13,4.48,0,0a1.09,1.09,0,0,1,0-.13S167.64,129,167.65,129.07Z" transform="translate(-144.28 -113.56)"/><path class="cls-5" d="M205.53,193l-2.81,0a7,7,0,0,1,3.42,6.42c0,5.81-4.59,10-12.37,10-7,0-11.9-3.51-11.9-9.46a7.94,7.94,0,0,1,3.61-6.84H174.06v-6h31.47V193Zm-11-.09c-5,0-7.5,1.73-7.5,5.11,0,3.56,2.39,5.24,7.12,5.24,4.12,0,7-2.15,7-5.2S198.46,192.93,194.57,192.93Z" transform="translate(-144.28 -113.56)"/><path class="cls-5" d="M195.6,179.16c3.46-.19,5.71-2.15,5.71-5.15,0-2-1-3.7-2.58-4.12v-6.28a10,10,0,0,1,7.4,10.12c0,7.68-4.21,11.52-12.55,11.52-7.12,0-11.71-4.08-11.71-11.15s4.59-10.82,13.73-10.82v15.88Zm-3.84-9.6c-3.42.09-5.06,2.34-5.06,4.73s1.87,4.45,5.06,4.69v-9.41Z" transform="translate(-144.28 -113.56)"/><path class="cls-3" d="M265.52,210.37V181.25c0-5.77-3-9.88-7.53-9.88-4.69,0-8.11,4.4-8.11,10.26v28.74H237.18V181.44c0-7.72-2.05-9.68-7.62-9.68-5.08,0-7.72,3.13-7.72,9.38v29.23H209.12V162.28H221v7c3.22-6.35,7.72-8.31,14.08-8.31,6.55,0,9.68,2.05,13.39,7.62,2.64-5.27,6.94-7.62,13-7.62,9.68,0,16.42,7,16.42,16v33.33H265.52Z" transform="translate(-144.28 -113.56)"/><path class="cls-5" d="M280.22,195.95c0.26,4.77,3,7.86,7.08,7.86,2.7,0,5.09-1.35,5.67-3.54h8.63c-1.93,6.5-7.15,10.17-13.9,10.17-10.56,0-15.84-5.79-15.84-17.25,0-9.79,5.6-16.09,15.32-16.09S302,183.39,302,195.95H280.22Zm13.2-5.27c-0.13-4.7-3.22-7-6.51-7s-6.11,2.57-6.44,7h12.94Zm-10.75-13.6-2-3.54L294,165.75l3,5.28Z" transform="translate(-144.28 -113.56)"/><path class="cls-4" d="M287.69,210.78c-10.74,0-16.19-5.92-16.19-17.6,0-8.35,4.07-14.09,10.9-15.86l-2.2-3.91,13.92-8.14,3.4,5.93L283.65,177a19.78,19.78,0,0,1,3.53-.3c10,0,15.22,6.64,15.22,19.21v0.35h-21.8c0.36,4.43,2.91,7.16,6.71,7.16,2.67,0,4.81-1.32,5.33-3.28l0.07-.26h9.36l-0.13.45C300,206.88,294.67,210.78,287.69,210.78Zm-0.52-33.35c-9.38,0-15,5.89-15,15.74,0,5.62,1.3,9.89,3.87,12.69s6.47,4.21,11.62,4.21c6.59,0,11.46-3.44,13.43-9.47h-7.89c-0.71,2.13-3.05,3.54-5.92,3.54-4.25,0-7.16-3.21-7.43-8.18l0-.37H301.7C301.6,183.55,296.72,177.43,287.18,177.43Zm-6-3.77,1.67,3,13.71-5.78-2.66-4.63ZM293.78,191H280.1l0-.37c0.32-4.36,3-7.28,6.79-7.28,3.31,0,6.71,2.25,6.85,7.29V191Zm-12.92-.7h12.2c-0.28-4.61-3.45-6.26-6.14-6.26C283.67,184.06,281.28,186.56,280.86,190.32Z" transform="translate(-144.28 -113.56)"/><path class="cls-3" d="M325.89,209.81l-7.58-13-7.4,13H297.17l14.53-22.11-14.09-21.22h13.83l7.31,12.59,6.34,8.63,14.79,22.11h-14Z" transform="translate(-144.28 -113.56)"/><path class="cls-1" d="M393.53,171.52a0.6,0.6,0,0,1-.7-0.47l-5.37-27.36a0.59,0.59,0,0,1,1.16-.23L394,170.82a0.59,0.59,0,0,1-.46.69h0Z" transform="translate(-144.28 -113.56)"/><path class="cls-1" d="M377.08,172.68a0.6,0.6,0,0,1-.7-0.46L371,144.85a0.59,0.59,0,1,1,1.16-.23L377.55,172a0.59,0.59,0,0,1-.47.69h0Z" transform="translate(-144.28 -113.56)"/><path class="cls-1" d="M371.46,143.14l0-.29a1.52,1.52,0,0,1,1.14-1.59,1.57,1.57,0,0,0-1.7-1l-0.34,0a1.58,1.58,0,0,0-1.34,1.78l0.36,2.55a1.58,1.58,0,0,0,1.78,1.34l0.34,0a1.58,1.58,0,0,0,1.34-1.39A1.51,1.51,0,0,1,371.46,143.14Z" transform="translate(-144.28 -113.56)"/><path class="cls-1" d="M371.16,145.08a1.57,1.57,0,0,1-1.68-1l0.07,0.51a1.58,1.58,0,0,0,1.78,1.34l0.34,0a1.58,1.58,0,0,0,1.34-1.39,1.3,1.3,0,0,0-1.52.52Z" transform="translate(-144.28 -113.56)"/><circle class="cls-1" cx="369.94" cy="141.2" r="0.34" transform="translate(-164.51 -39.93) rotate(-11.07)"/><path class="cls-1" d="M388.09,142.14l0-.29a1.51,1.51,0,0,1,1.14-1.59,1.58,1.58,0,0,0-1.7-1l-0.34,0a1.58,1.58,0,0,0-1.34,1.78l0.36,2.55A1.58,1.58,0,0,0,388,145l0.34,0a1.57,1.57,0,0,0,1.34-1.39A1.51,1.51,0,0,1,388.09,142.14Z" transform="translate(-144.28 -113.56)"/><path class="cls-1" d="M387.79,144.09a1.57,1.57,0,0,1-1.68-1l0.07,0.51A1.58,1.58,0,0,0,388,145l0.34,0a1.57,1.57,0,0,0,1.34-1.39,1.48,1.48,0,0,1-.5-0.07,1.56,1.56,0,0,1-1,.59Z" transform="translate(-144.28 -113.56)"/><circle class="cls-1" cx="386.57" cy="140.2" r="0.34" transform="translate(-164.23 -35.27) rotate(-11.27)"/><path class="cls-1" d="M376.65,183.38h-0.08a0.39,0.39,0,0,1-.39-0.4l0.16-10.45a0.39,0.39,0,0,1,.79,0L377,183a0.39,0.39,0,0,1-.32.38h0Z" transform="translate(-144.28 -113.56)"/><path class="cls-1" d="M381.22,180.85a0.4,0.4,0,0,1-.43-0.22l-3.71-8.06a0.39,0.39,0,0,1,.72-0.33l3.71,8.06a0.39,0.39,0,0,1-.19.52l-0.09,0h0Z" transform="translate(-144.28 -113.56)"/><circle class="cls-1" cx="376.97" cy="172.1" r="1.18" transform="translate(-170.4 -37.6) rotate(-11.12)"/><path class="cls-1" d="M377.82,171.29a1.22,1.22,0,0,1,.07.22,1.18,1.18,0,0,1-2,1,1.18,1.18,0,0,0,2.24-.67A1.2,1.2,0,0,0,377.82,171.29Z" transform="translate(-144.28 -113.56)"/><path class="cls-1" d="M396.22,179.89a6.21,6.21,0,0,0-3.46.64c-2.47.92-5.94,0.54-8.4-.31-1.63-.57-2.38-2-3.08-3.48-0.42-.89-1.29-1-2.33-0.69-1.86.5-3.14,1.46-3.43,3.34a9.61,9.61,0,0,0,.06,3.7,3.94,3.94,0,0,0,2.6,3.1c2.2,0.76,5.5.8,8.07,1.15a9.89,9.89,0,0,0,6.27-.84,14.61,14.61,0,0,0,4.47-3.3C398.2,182,398.17,180.3,396.22,179.89Z" transform="translate(-144.28 -113.56)"/><path class="cls-1" d="M376.92,178.94a5.45,5.45,0,0,1,2-1.84c0.68-.32,1.88.16,2.41-0.17l-0.09-.19c-0.42-.89-1.29-1-2.33-0.69-1.86.5-3.14,1.46-3.43,3.34a9.61,9.61,0,0,0,.06,3.7c0.4,1.59.75,1.65,2.08,2.14A7,7,0,0,1,376.92,178.94Z" transform="translate(-144.28 -113.56)"/><path class="cls-1" d="M393.14,182.19h-0.08a0.39,0.39,0,0,1-.39-0.4l0.16-10.45a0.39,0.39,0,1,1,.79,0l-0.16,10.45a0.39,0.39,0,0,1-.32.38h0Z" transform="translate(-144.28 -113.56)"/><path class="cls-1" d="M397.72,179.67a0.39,0.39,0,0,1-.43-0.22l-3.71-8.06a0.4,0.4,0,0,1,.72-0.33l3.71,8.06a0.4,0.4,0,0,1-.19.53l-0.09,0h0Z" transform="translate(-144.28 -113.56)"/><path class="cls-1" d="M397.81,177.43a2.72,2.72,0,0,0-4.34.83A10.12,10.12,0,0,0,392.2,182a6.46,6.46,0,0,1-.45,2.69,4.18,4.18,0,0,1-.66,1.25,3.88,3.88,0,0,1-2.15.45,13.74,13.74,0,0,1-2,0,52.86,52.86,0,0,1-6.16-.53,15.32,15.32,0,0,1-3.09-.59C377,185,376,184,376,184.16a3,3,0,0,0,2.56,2.22c0.93,0.09,1.84.36,2.77,0.51,2.21,0.34,4.43.44,6.65,0.68a7,7,0,0,0,4.69-1.06,24.55,24.55,0,0,0,3.71-2.41C398,182.74,399.65,179.27,397.81,177.43Z" transform="translate(-144.28 -113.56)"/><path class="cls-1" d="M392.73,178.56c-0.56,1-.93,5.36-1,5.55-0.05.87,0.89,0.11,1.48-2.48a6.26,6.26,0,0,1,1.15-2.92,3.8,3.8,0,0,1,2.26-1.45,1.54,1.54,0,0,1,1.64.8,5.93,5.93,0,0,0-.47-0.64C396.53,175.66,393.58,177,392.73,178.56Z" transform="translate(-144.28 -113.56)"/><circle class="cls-1" cx="393.43" cy="171.04" r="1.18" transform="translate(-169.82 -34.76) rotate(-11.08)"/><path class="cls-1" d="M394.29,170.23a1,1,0,0,1,.07.22,1.17,1.17,0,0,1-2,1A1.18,1.18,0,1,0,394.29,170.23Z" transform="translate(-144.28 -113.56)"/><path class="cls-5" d="M394.05,171.6a0.59,0.59,0,0,1-.69-0.47L388,143.78a0.59,0.59,0,0,1,1.16-.23l5.38,27.36a0.59,0.59,0,0,1-.46.69h0Z" transform="translate(-144.28 -113.56)"/><path class="cls-5" d="M377.61,172.76a0.59,0.59,0,0,1-.7-0.47l-5.37-27.36a0.59,0.59,0,1,1,1.16-.23l5.37,27.36a0.59,0.59,0,0,1-.47.69h0Z" transform="translate(-144.28 -113.56)"/><path class="cls-3" d="M372,143.22l0-.29a1.51,1.51,0,0,1,1.14-1.59,1.57,1.57,0,0,0-1.7-1l-0.34,0a1.58,1.58,0,0,0-1.34,1.78l0.36,2.55a1.58,1.58,0,0,0,1.78,1.35l0.34,0a1.58,1.58,0,0,0,1.34-1.39A1.51,1.51,0,0,1,372,143.22Z" transform="translate(-144.28 -113.56)"/><path class="cls-4" d="M371.69,145.17a1.57,1.57,0,0,1-1.68-1l0.07,0.51a1.58,1.58,0,0,0,1.78,1.35l0.34,0a1.58,1.58,0,0,0,1.34-1.39,1.29,1.29,0,0,0-1.52.52Z" transform="translate(-144.28 -113.56)"/><circle class="cls-4" cx="370.46" cy="141.28" r="0.34" transform="translate(-164.75 -38.46) rotate(-11.27)"/><path class="cls-3" d="M388.62,142.23l0-.29a1.51,1.51,0,0,1,1.14-1.59,1.57,1.57,0,0,0-1.7-1l-0.34,0a1.58,1.58,0,0,0-1.34,1.78l0.36,2.55a1.58,1.58,0,0,0,1.78,1.34l0.34,0a1.57,1.57,0,0,0,1.34-1.39A1.51,1.51,0,0,1,388.62,142.23Z" transform="translate(-144.28 -113.56)"/><path class="cls-4" d="M388.32,144.17a1.58,1.58,0,0,1-1.68-1l0.07,0.51a1.58,1.58,0,0,0,1.78,1.34l0.34,0a1.57,1.57,0,0,0,1.34-1.39,1.52,1.52,0,0,1-.5-0.07,1.55,1.55,0,0,1-1,.59Z" transform="translate(-144.28 -113.56)"/><circle class="cls-4" cx="387.09" cy="140.29" r="0.34" transform="translate(-163.95 -37.04) rotate(-11.01)"/><path class="cls-5" d="M377.17,183.47h-0.08a0.4,0.4,0,0,1-.39-0.4l0.16-10.45a0.39,0.39,0,0,1,.79,0l-0.16,10.45a0.4,0.4,0,0,1-.32.38h0Z" transform="translate(-144.28 -113.56)"/><path class="cls-5" d="M381.75,180.94a0.4,0.4,0,0,1-.43-0.22l-3.71-8.06a0.39,0.39,0,0,1,.72-0.33l3.71,8.06a0.4,0.4,0,0,1-.19.52l-0.09,0h0Z" transform="translate(-144.28 -113.56)"/><circle class="cls-2" cx="377.49" cy="172.18" r="1.18" transform="translate(-170.39 -37.57) rotate(-11.11)"/><path class="cls-4" d="M378.34,171.37a1.16,1.16,0,0,1,.07.22,1.17,1.17,0,0,1-2,1A1.18,1.18,0,1,0,378.34,171.37Z" transform="translate(-144.28 -113.56)"/><path class="cls-2" d="M396.74,180a6.21,6.21,0,0,0-3.46.64c-2.47.92-5.94,0.54-8.4-.31-1.64-.57-2.38-2-3.08-3.48-0.43-.89-1.29-1-2.33-0.69-1.86.5-3.14,1.46-3.43,3.34a9.62,9.62,0,0,0,.06,3.7,4,4,0,0,0,2.6,3.1c2.2,0.76,5.5.8,8.07,1.15a9.88,9.88,0,0,0,6.27-.84,14.59,14.59,0,0,0,4.47-3.29C398.73,182.1,398.7,180.39,396.74,180Z" transform="translate(-144.28 -113.56)"/><path class="cls-4" d="M377.44,179a5.46,5.46,0,0,1,2-1.84c0.68-.32,1.88.16,2.41-0.17l-0.09-.2c-0.43-.89-1.29-1-2.33-0.69-1.86.5-3.14,1.46-3.43,3.34a9.62,9.62,0,0,0,.06,3.7c0.4,1.59.75,1.65,2.08,2.15A7,7,0,0,1,377.44,179Z" transform="translate(-144.28 -113.56)"/><path class="cls-4" d="M378.64,185.68l-0.69-.26a2.41,2.41,0,0,1-2-2.21,9.69,9.69,0,0,1-.06-3.77c0.28-1.8,1.41-2.91,3.55-3.48a3.75,3.75,0,0,1,1-.15,1.58,1.58,0,0,1,1.54.93l0.16,0.34-0.13.08a1.25,1.25,0,0,1-.67.14c-0.18,0-.38,0-0.58,0s-0.4,0-.59,0a1.41,1.41,0,0,0-.59.1,5.27,5.27,0,0,0-2,1.77,6.85,6.85,0,0,0,.72,6.11Zm1.77-9.52a3.62,3.62,0,0,0-.9.14c-2,.54-3,1.55-3.3,3.2a9.24,9.24,0,0,0,.06,3.63c0.32,1.29.58,1.5,1.49,1.85a7.25,7.25,0,0,1-.46-6,5.58,5.58,0,0,1,2.12-1.92,1.69,1.69,0,0,1,.74-0.13c0.2,0,.42,0,0.62,0a3.05,3.05,0,0,0,.89,0v0A1.23,1.23,0,0,0,380.41,176.16Z" transform="translate(-144.28 -113.56)"/><path class="cls-5" d="M393.66,182.28h-0.08a0.39,0.39,0,0,1-.39-0.4l0.16-10.45a0.4,0.4,0,0,1,.79,0L394,181.9a0.4,0.4,0,0,1-.32.38h0Z" transform="translate(-144.28 -113.56)"/><path class="cls-5" d="M398.24,179.75a0.4,0.4,0,0,1-.43-0.22l-3.71-8.06a0.39,0.39,0,1,1,.71-0.33l3.71,8.06a0.39,0.39,0,0,1-.19.52l-0.09,0h0Z" transform="translate(-144.28 -113.56)"/><path class="cls-5" d="M398.34,177.52a2.71,2.71,0,0,0-4.34.83,10.14,10.14,0,0,0-1.27,3.72,6.37,6.37,0,0,1-.45,2.69,4.17,4.17,0,0,1-.65,1.25,3.88,3.88,0,0,1-2.15.45,13.38,13.38,0,0,1-2.05,0,52.87,52.87,0,0,1-6.16-.53,15.58,15.58,0,0,1-3.09-.58c-0.6-.24-1.66-1.23-1.63-1.08a3,3,0,0,0,2.56,2.22c0.93,0.09,1.84.36,2.77,0.51,2.21,0.34,4.43.44,6.65,0.68a7.05,7.05,0,0,0,4.69-1.06,24.52,24.52,0,0,0,3.71-2.41C398.51,182.83,400.18,179.35,398.34,177.52Z" transform="translate(-144.28 -113.56)"/><path class="cls-4" d="M393.25,178.65c-0.55,1-.93,5.36-1,5.56-0.06.87,0.88,0.11,1.48-2.49a6.23,6.23,0,0,1,1.15-2.91,3.78,3.78,0,0,1,2.26-1.45,1.54,1.54,0,0,1,1.64.81,5.6,5.6,0,0,0-.47-0.64C397,175.75,394.11,177.05,393.25,178.65Z" transform="translate(-144.28 -113.56)"/><circle class="cls-2" cx="393.96" cy="171.12" r="1.18" transform="translate(-169.8 -34.77) rotate(-11.07)"/><path class="cls-4" d="M394.81,170.31a1.32,1.32,0,0,1,.07.22,1.18,1.18,0,0,1-2,1,1.18,1.18,0,0,0,2.24-.67A1.16,1.16,0,0,0,394.81,170.31Z" transform="translate(-144.28 -113.56)"/><polygon class="cls-1" points="192.32 57.43 182.83 57.38 159.78 91.26 152.59 94.86 164.88 94.43 173.06 89.72 191.45 61.22 193.77 58.05 192.32 57.43"/><path class="cls-1" d="M344.44,166.84l0.5,4.77-3,1.11c-1.52.16-3.29,3.61-3.29,3.61l-19,28.9s-1.82,2.33-2.8,2.43l-6,2.06,0.68-5.17s1.84-.81,3.41-1.48a10.11,10.11,0,0,0,3.16-2.88s18.63-29,18.91-29.31a8.61,8.61,0,0,1,3.48-2.71Z" transform="translate(-144.28 -113.56)"/><path class="cls-1" d="M330,166.41l0.5,4.77-3,1.11c-1.52.16-3.29,3.61-3.29,3.61l-19,28.9s-1.83,2.33-2.8,2.44l-6,2.06,0.34-4.75a8.52,8.52,0,0,0,3.79-1.52,16.55,16.55,0,0,0,2.95-3.87s18.44-28.65,18.72-29a7.62,7.62,0,0,1,3.85-2.42Z" transform="translate(-144.28 -113.56)"/><path class="cls-1" d="M338.62,176.31l-19,28.9s-1.82,2.33-2.8,2.43l-5.51,1.89,0.4-3,3.41-1.48a10.08,10.08,0,0,0,3.16-2.88s18.63-29,18.91-29.31a8.61,8.61,0,0,1,3.48-2.71l3.93-1.34,0.29,2.79-3,1.11C340.39,172.87,338.62,176.31,338.62,176.31Z" transform="translate(-144.28 -113.56)"/><path class="cls-1" d="M324.17,176.07l-19,28.9s-1.82,2.33-2.8,2.44l-5.51,1.89-1-2.88s3.2-1,4.76-1.62a10.12,10.12,0,0,0,3.16-2.88s18.63-29,18.91-29.3a8.66,8.66,0,0,1,3.48-2.71l3.94-1.33,0.29,2.79-3,1.11C325.94,172.62,324.17,176.07,324.17,176.07Z" transform="translate(-144.28 -113.56)"/><path class="cls-1" d="M344.44,166.31l0.5,4.77-3,1.11c-1.52.16-3.29,3.61-3.29,3.61l-19,28.91s-1.82,2.33-2.8,2.44l-6,2.06,0.68-5.17s1.84-.81,3.41-1.48a10.12,10.12,0,0,0,3.16-2.88s18.63-29,18.91-29.31a8.61,8.61,0,0,1,3.48-2.71Z" transform="translate(-144.28 -113.56)"/><path class="cls-1" d="M295.06,210c-0.76-5.07,1.82-5.37,1.82-5.37s-0.55,3.54,1.62,3.54c1.23,0.11,7.43.06,9.13-.12s2.85-3.68,3.92-3.47c0.35,0.28.6,4-.68,5.17Z" transform="translate(-144.28 -113.56)"/><path class="cls-1" d="M296.21,205.94s-0.33,2.81,1.39,2.62,8.43,0.27,9.9.11,3.29-2.17,3.29-2.17,0.77,2.57-.54,2.71-13.82.3-14.8,0.41A4.77,4.77,0,0,1,296.21,205.94Z" transform="translate(-144.28 -113.56)"/><circle class="cls-1" cx="341.04" cy="169" r="0.45" transform="translate(-160.08 -76.99) rotate(-6)"/><circle class="cls-1" cx="339.91" cy="169.89" r="0.26" transform="translate(-160.24 -76.93) rotate(-6.03)"/><circle class="cls-1" cx="313.4" cy="204.83" r="0.48" transform="translate(-163.77 -80.08) rotate(-5.93)"/><circle class="cls-1" cx="312.56" cy="205.8" r="0.23" transform="translate(-163.54 -80.81) rotate(-5.82)"/><circle class="cls-1" cx="297.66" cy="204.98" r="0.34" transform="matrix(0.99, -0.11, 0.11, 0.99, -164.2, -81.09)"/><polygon class="cls-3" points="192.23 59.27 182.74 59.23 159.68 93.1 152.49 96.7 164.79 96.27 172.97 91.57 191.36 63.05 193.68 59.89 192.23 59.27"/><path class="cls-6" d="M344.35,168.15l0.5,4.76-3,1.11c-1.52.16-3.29,3.61-3.29,3.61l-19,28.9s-1.82,2.33-2.8,2.44l-6,2.06,0.68-5.17s1.84-.81,3.41-1.48A10.09,10.09,0,0,0,318,201.5s18.63-29,18.91-29.31a8.62,8.62,0,0,1,3.49-2.71Z" transform="translate(-144.28 -113.56)"/><path class="cls-3" d="M329.52,167.91L330,172l-3,1.05c-1.52.16-3.23,4.32-3.23,4.32l-19,28.9s-1.89,1.73-2.86,1.84l-5.93,2.66,0.34-4.74s2.22-.86,3.79-1.52,3.12-3.26,3.12-3.26,18.63-29,18.91-29.3a8.65,8.65,0,0,1,3.48-2.71Z" transform="translate(-144.28 -113.56)"/><path class="cls-4" d="M295.56,211.34l0.39-5.55,0.21-.08s2.23-.86,3.78-1.52,2.94-3.09,3-3.12c1.91-3,18.66-29,18.94-29.35a9,9,0,0,1,3.64-2.82l3.94-1.34,0.41-.14,0.51,4.81L327,173.41c-1,.1-2.31,2.57-2.94,4.11l0,0.06-19,28.94,0,0c-0.2.18-1.94,1.75-3,1.92Zm1.06-5.06-0.28,3.94,5.51-2.45a7.58,7.58,0,0,0,2.63-1.72l18.91-28.84c0.24-.57,1.83-4.27,3.45-4.5l2.74-.95-0.36-3.4-3.52,1.2a8.13,8.13,0,0,0-3.32,2.6c-0.33.44-12.5,19.34-18.89,29.27-0.06.1-1.62,2.69-3.28,3.4C298.93,205.38,297.2,206.06,296.61,206.29Z" transform="translate(-144.28 -113.56)"/><path class="cls-7" d="M338.53,177.63l-19,28.9s-1.82,2.33-2.8,2.44l-5.51,1.89,0.4-3,3.41-1.48a10.08,10.08,0,0,0,3.16-2.88s18.63-29,18.91-29.31a8.58,8.58,0,0,1,3.48-2.71l3.93-1.34,0.3,2.79-3,1.11C340.3,174.19,338.53,177.63,338.53,177.63Z" transform="translate(-144.28 -113.56)"/><path class="cls-5" d="M324.08,177.39l-19,28.9s-1.82,2.33-2.8,2.44l-5.51,1.89-1-2.88s3.19-1,4.76-1.62a10.11,10.11,0,0,0,3.16-2.88s18.63-29,18.91-29.31a8.64,8.64,0,0,1,3.48-2.71l3.93-1.33,0.29,2.79-3,1.11C325.85,173.94,324.08,177.39,324.08,177.39Z" transform="translate(-144.28 -113.56)"/><path class="cls-5" d="M344.35,168.15l0.5,4.76-3,1.11c-1.52.16-3.29,3.61-3.29,3.61l-19,28.9s-1.82,2.33-2.8,2.44l-6,2.06,0.68-5.17s1.84-.81,3.41-1.48A10.09,10.09,0,0,0,318,201.5s18.63-29,18.91-29.31a8.62,8.62,0,0,1,3.49-2.71Z" transform="translate(-144.28 -113.56)"/><path class="cls-3" d="M295,211.29c-0.5-4.73,1.82-5.37,1.82-5.37s-0.55,3.54,1.62,3.55c1.23,0.11,7.43.06,9.13-.12s2.84-3.68,3.91-3.47c0.34,0.28.6,4-.68,5.17Z" transform="translate(-144.28 -113.56)"/><path class="cls-4" d="M294.81,211.47l0-.16c-0.51-4.82,1.85-5.53,1.95-5.56l0.26-.07,0,0.27s-0.3,2,.47,2.92a1.21,1.21,0,0,0,1,.43c0.42,0,1.41.06,2.74,0.06,2.28,0,5.28-.06,6.37-0.18,0.82-.09,1.55-1.09,2.19-2s1.18-1.61,1.78-1.5h0l0,0a3.61,3.61,0,0,1,.34,1.71c0,0.65,0,2.83-1,3.72l-0.05,0Zm1.77-5.26c-0.55.33-1.77,1.48-1.45,4.9l15.58-.25c1.1-1.07.89-4.37,0.65-4.83A3,3,0,0,0,310,207.4c-0.68.94-1.46,2-2.44,2.11s-4.06.18-6.41,0.18c-1.34,0-2.35,0-2.76-.06a1.56,1.56,0,0,1-1.23-.55A4.25,4.25,0,0,1,296.58,206.21Z" transform="translate(-144.28 -113.56)"/><path class="cls-5" d="M296.12,207.26s-0.33,2.8,1.39,2.62,8.43,0.27,9.9.11,3.29-2.16,3.29-2.16,0.77,2.57-.54,2.71-13.82.3-14.81,0.41A4.77,4.77,0,0,1,296.12,207.26Z" transform="translate(-144.28 -113.56)"/><circle class="cls-4" cx="340.95" cy="170.32" r="0.45" transform="translate(-160.48 -76.28) rotate(-6.11)"/><circle class="cls-4" cx="339.82" cy="171.2" r="0.25" transform="translate(-160.41 -76.86) rotate(-6.04)"/><circle class="cls-4" cx="313.31" cy="206.14" r="0.48" transform="translate(-164.25 -79.41) rotate(-6.05)"/><circle class="cls-4" cx="312.47" cy="207.12" r="0.23" transform="translate(-163.68 -80.79) rotate(-5.82)"/><circle class="cls-4" cx="297.57" cy="206.3" r="0.34" transform="translate(-164.42 -80.95) rotate(-6.07)"/></svg>